<svg width="94" height="21" viewBox="0 0 94 21" fill="none" xmlns="http://www.w3.org/2000/svg">
<g clip-path="url(#clip0_3324_878)">
<mask id="path-1-inside-1_3324_878" fill="white">
<path d="M14.7539 9.79553L19.5956 12.6121L20.819 13.323C21.2358 13.565 21.5215 13.9876 21.5719 14.4674C21.5795 14.5405 21.5837 14.6145 21.5837 14.6893C21.5837 14.8052 21.5744 14.9195 21.5559 15.0304C21.4803 15.4892 21.187 15.8841 20.7778 16.106L19.5569 16.7689L13.3187 20.1577C13.0936 20.2796 12.8423 20.3443 12.586 20.3443H10.8778H9.16949C8.91321 20.3443 8.66197 20.2804 8.43678 20.1577L2.19861 16.7689L0.977695 16.106C0.568483 15.8841 0.275228 15.4892 0.199604 15.0304C0.181118 14.9195 0.171875 14.8052 0.171875 14.6893C0.171875 14.6145 0.176076 14.5397 0.183639 14.4674C0.234895 13.9885 0.520587 13.565 0.936521 13.323L2.15996 12.6121L7.0016 9.79553"/>
</mask>
<path d="M19.5956 12.6121L19.4266 12.9026L19.4267 12.9027L19.5956 12.6121ZM20.819 13.323L20.6501 13.6136L20.6502 13.6137L20.819 13.323ZM21.5719 14.4674L21.9062 14.4329L21.9062 14.4323L21.5719 14.4674ZM21.5559 15.0304L21.2244 14.9752L21.2243 14.9758L21.5559 15.0304ZM20.7778 16.106L20.6177 15.8105L20.6174 15.8106L20.7778 16.106ZM19.5569 16.7689L19.3965 16.4736L19.3965 16.4736L19.5569 16.7689ZM13.3187 20.1577L13.4787 20.4534L13.4792 20.4531L13.3187 20.1577ZM8.43678 20.1577L8.59757 19.8626L8.59722 19.8624L8.43678 20.1577ZM2.19861 16.7689L2.35905 16.4736L2.359 16.4736L2.19861 16.7689ZM0.977695 16.106L1.13809 15.8106L1.13788 15.8105L0.977695 16.106ZM0.199604 15.0304L0.531238 14.9758L0.531139 14.9752L0.199604 15.0304ZM0.183639 14.4674L-0.150562 14.4317L-0.150644 14.4325L0.183639 14.4674ZM0.936521 13.323L0.767663 13.0324L0.767495 13.0325L0.936521 13.323ZM2.15996 12.6121L2.32881 12.9027L2.32897 12.9026L2.15996 12.6121ZM14.5849 10.0861L19.4266 12.9026L19.7646 12.3216L14.9229 9.50501L14.5849 10.0861ZM19.4267 12.9027L20.6501 13.6136L20.9879 13.0324L19.7644 12.3215L19.4267 12.9027ZM20.6502 13.6137C20.9789 13.8045 21.199 14.1347 21.2376 14.5026L21.9062 14.4323C21.844 13.8406 21.4927 13.3255 20.9878 13.0323L20.6502 13.6137ZM21.2376 14.502C21.2441 14.5647 21.2475 14.6271 21.2475 14.6893H21.9198C21.9198 14.6019 21.9149 14.5164 21.9062 14.4329L21.2376 14.502ZM21.2475 14.6893C21.2475 14.7874 21.2397 14.8832 21.2244 14.9752L21.8875 15.0857C21.9091 14.9558 21.9198 14.823 21.9198 14.6893H21.2475ZM21.2243 14.9758C21.1664 15.3268 20.9404 15.6355 20.6177 15.8105L20.938 16.4014C21.4337 16.1328 21.7942 15.6516 21.8876 15.0851L21.2243 14.9758ZM20.6174 15.8106L19.3965 16.4736L19.7173 17.0643L20.9382 16.4013L20.6174 15.8106ZM19.3965 16.4736L13.1583 19.8624L13.4792 20.4531L19.7174 17.0643L19.3965 16.4736ZM13.1588 19.8621C12.9819 19.9578 12.7855 20.0082 12.586 20.0082V20.6804C12.8991 20.6804 13.2052 20.6013 13.4787 20.4534L13.1588 19.8621ZM12.586 20.0082H10.8778V20.6804H12.586V20.0082ZM10.8778 20.0082H9.16949V20.6804H10.8778V20.0082ZM9.16949 20.0082C8.96929 20.0082 8.77334 19.9584 8.59757 19.8626L8.27599 20.4529C8.5506 20.6025 8.85713 20.6804 9.16949 20.6804V20.0082ZM8.59722 19.8624L2.35905 16.4736L2.03817 17.0643L8.27634 20.4531L8.59722 19.8624ZM2.359 16.4736L1.13808 15.8106L0.817304 16.4013L2.03822 17.0643L2.359 16.4736ZM1.13788 15.8105C0.81509 15.6355 0.589097 15.3268 0.531237 14.9758L-0.132029 15.0851C-0.0386401 15.6516 0.321876 16.1328 0.817514 16.4014L1.13788 15.8105ZM0.531139 14.9752C0.515812 14.8832 0.507983 14.7874 0.507983 14.6893H-0.164233C-0.164233 14.823 -0.153576 14.9558 -0.131931 15.0857L0.531139 14.9752ZM0.507983 14.6893C0.507983 14.6269 0.511498 14.5638 0.517922 14.5024L-0.150644 14.4325C-0.159345 14.5156 -0.164233 14.6021 -0.164233 14.6893H0.507983ZM0.517839 14.5032C0.557194 14.1355 0.777779 13.8042 1.10555 13.6135L0.767495 13.0325C0.263396 13.3258 -0.0874035 13.8415 -0.150561 14.4317L0.517839 14.5032ZM1.10538 13.6136L2.32881 12.9027L1.9911 12.3215L0.767663 13.0324L1.10538 13.6136ZM2.32897 12.9026L7.17061 10.0861L6.83258 9.50501L1.99095 12.3216L2.32897 12.9026Z" fill="#484848" mask="url(#path-1-inside-1_3324_878)"/>
<path d="M10.7699 0.654907H9.18595C8.96748 0.654907 8.75237 0.709525 8.56079 0.813718L2.07474 4.33277L0.745435 5.05456C0.432854 5.2243 0.195898 5.51251 0.10767 5.85702C0.0656561 6.02003 0.0429688 6.19061 0.0429688 6.36707C0.0429688 6.44857 0.0480104 6.5284 0.0572533 6.60738C0.104309 7.01155 0.343786 7.36699 0.694178 7.57285L2.10583 8.40052L5.52994 10.4088C5.73076 10.5264 5.95931 10.5886 6.19207 10.5886H10.7699H15.3477C15.5804 10.5886 15.809 10.5264 16.0098 10.4088L19.4339 8.40052L20.8455 7.57285C21.1959 7.36699 21.4354 7.01155 21.4825 6.60738C21.4917 6.5284 21.4968 6.44857 21.4968 6.36707C21.4968 6.19061 21.4741 6.02003 21.4321 5.85702C21.3438 5.51251 21.1069 5.2243 20.7943 5.05456L19.465 4.33277L12.9789 0.813718C12.7874 0.709525 12.5722 0.654907 12.3538 0.654907H10.7699Z" fill="#01A0A2"/>
<path d="M6.70312 14.0294C6.79724 13.9017 6.88294 13.7673 6.98714 13.6488C7.69801 12.8413 8.41392 12.038 9.12731 11.233C9.58945 10.7112 9.555 10.5331 8.92732 10.1978C8.71725 10.0861 8.48702 10.002 8.30132 9.86002C8.15007 9.74406 7.96773 9.56592 7.95765 9.40543C7.95009 9.28443 8.1694 9.09621 8.32737 9.02479C9.81717 8.35089 11.3162 7.69632 12.8119 7.03503C13.2337 6.84849 13.6513 6.65102 14.0782 6.47793C14.1908 6.43255 14.3336 6.46112 14.4622 6.45608C14.4151 6.5754 14.3958 6.71825 14.3168 6.80984C13.6101 7.6207 12.8926 8.42232 12.1783 9.22645C11.6204 9.85498 11.6464 9.99194 12.3968 10.3995C12.6178 10.5196 12.8455 10.6297 13.0547 10.7684C13.3816 10.986 13.3732 11.2801 13.0245 11.4355C11.0482 12.3186 9.06765 13.1917 7.08713 14.0647C6.99302 14.1059 6.88294 14.1126 6.78043 14.1353C6.75522 14.1 6.72917 14.0647 6.70312 14.0294Z" fill="#FCB304"/>
</g>
<path d="M32.319 15.5V2.63H36.783C40.7115 2.63 43.344 5.1815 43.344 9.065C43.344 12.9485 40.7115 15.5 36.783 15.5H32.319ZM34.65 13.403H36.7515C39.402 13.403 40.968 11.81 40.968 9.065C40.968 6.32 39.402 4.727 36.7515 4.727H34.65V13.403ZM44.3902 9.1235C44.3902 6.779 46.1722 5.3075 49.0342 5.3075C52.0177 5.3075 53.7997 6.9095 53.7997 9.614V15.5H51.5407V12.899C51.0772 14.681 49.6102 15.77 47.5942 15.77C45.4972 15.77 44.0977 14.5865 44.0977 12.809C44.0977 10.964 45.6052 9.8435 48.0937 9.8435H51.5407V9.614C51.5407 8.1155 50.5732 7.193 48.9892 7.193C47.3782 7.193 46.6447 7.9445 46.6447 9.1235H44.3902ZM51.5407 11.4275H48.2197C46.9957 11.4275 46.3477 11.8505 46.3477 12.656C46.3477 13.502 47.0722 13.9745 48.3682 13.9745C50.2132 13.9745 51.5407 13.025 51.5407 11.711V11.4275ZM59.2222 5.3075C62.0347 5.3075 63.6502 6.599 63.6502 8.6735H61.4272C61.4272 7.7015 60.6622 7.0805 59.2537 7.0805C57.9937 7.0805 57.1342 7.571 57.1342 8.3045C57.1342 9.164 58.2547 9.344 59.3527 9.524L60.0142 9.632C61.6387 9.8975 63.9832 10.2845 63.9832 12.6695C63.9832 14.645 62.3677 15.77 59.4202 15.77C56.3332 15.77 54.7357 14.537 54.7357 12.3275H56.9542C56.9542 13.394 57.7462 13.988 59.4112 13.988C60.8872 13.988 61.7647 13.5245 61.7647 12.71C61.7647 11.747 60.6172 11.54 59.3392 11.3195L58.6777 11.207C57.1927 10.9505 54.9157 10.5635 54.9157 8.3495C54.9157 6.482 56.5402 5.3075 59.2222 5.3075ZM71.2509 15.4235C70.4454 15.653 69.7344 15.7655 69.1089 15.7655C67.0299 15.7655 65.9229 14.51 65.9229 12.08V7.4135H64.6269V5.5775H65.9229V3.2915H68.1819V5.5775H71.2509V7.4135H68.1819V12.0845C68.1819 13.313 68.6184 13.871 69.6084 13.871C69.9999 13.871 70.5309 13.781 71.2509 13.5965V15.4235ZM72.3043 9.1235C72.3043 6.779 74.0863 5.3075 76.9483 5.3075C79.9318 5.3075 81.7138 6.9095 81.7138 9.614V15.5H79.4548V12.899C78.9913 14.681 77.5243 15.77 75.5083 15.77C73.4113 15.77 72.0118 14.5865 72.0118 12.809C72.0118 10.964 73.5193 9.8435 76.0078 9.8435H79.4548V9.614C79.4548 8.1155 78.4873 7.193 76.9033 7.193C75.2923 7.193 74.5588 7.9445 74.5588 9.1235H72.3043ZM79.4548 11.4275H76.1338C74.9098 11.4275 74.2618 11.8505 74.2618 12.656C74.2618 13.502 74.9863 13.9745 76.2823 13.9745C78.1273 13.9745 79.4548 13.025 79.4548 11.711V11.4275ZM82.9918 9.1235C82.9918 6.779 84.7738 5.3075 87.6358 5.3075C90.6193 5.3075 92.4013 6.9095 92.4013 9.614V15.5H90.1423V12.899C89.6788 14.681 88.2118 15.77 86.1958 15.77C84.0988 15.77 82.6993 14.5865 82.6993 12.809C82.6993 10.964 84.2068 9.8435 86.6953 9.8435H90.1423V9.614C90.1423 8.1155 89.1748 7.193 87.5908 7.193C85.9798 7.193 85.2463 7.9445 85.2463 9.1235H82.9918ZM90.1423 11.4275H86.8213C85.5973 11.4275 84.9493 11.8505 84.9493 12.656C84.9493 13.502 85.6738 13.9745 86.9698 13.9745C88.8148 13.9745 90.1423 13.025 90.1423 11.711V11.4275Z" fill="black"/>
<defs>
<clipPath id="clip0_3324_878">
<rect width="21.626" height="19.7682" fill="white" transform="translate(0 0.615845)"/>
</clipPath>
</defs>
</svg>
